<?xml version="1.0" encoding="UTF-8"?>
<svg xmlns="http://www.w3.org/2000/svg" viewBox="0 0 456 456">
  <!-- Table/grid icon representing TableView -->
  <g transform="translate(78, 78)" fill="white">
    <!-- Outer rounded rectangle (table border) -->
    <rect x="0" y="0" width="300" height="300" rx="24" fill="none" stroke="white" stroke-width="16"/>

    <!-- Horizontal dividers (3 rows) -->
    <line x1="0" y1="100" x2="300" y2="100" stroke="white" stroke-width="10"/>
    <line x1="0" y1="200" x2="300" y2="200" stroke="white" stroke-width="10"/>

    <!-- Row content: circles (icons) and lines (text) -->
    <!-- Row 1 -->
    <circle cx="60" cy="50" r="18" fill="white"/>
    <rect x="100" y="38" width="140" height="12" rx="6" fill="white"/>
    <rect x="100" y="56" width="80" height="8" rx="4" fill="white" opacity="0.6"/>

    <!-- Row 2 -->
    <circle cx="60" cy="150" r="18" fill="white"/>
    <rect x="100" y="138" width="120" height="12" rx="6" fill="white"/>
    <rect x="100" y="156" width="100" height="8" rx="4" fill="white" opacity="0.6"/>

    <!-- Row 3 -->
    <circle cx="60" cy="250" r="18" fill="white"/>
    <rect x="100" y="238" width="160" height="12" rx="6" fill="white"/>
    <rect x="100" y="256" width="70" height="8" rx="4" fill="white" opacity="0.6"/>

    <!-- Accessory indicators (chevrons) -->
    <path d="M264 40 L278 50 L264 60" fill="none" stroke="white" stroke-width="6" stroke-linecap="round" stroke-linejoin="round"/>
    <path d="M264 140 L278 150 L264 160" fill="none" stroke="white" stroke-width="6" stroke-linecap="round" stroke-linejoin="round"/>
    <path d="M264 240 L278 250 L264 260" fill="none" stroke="white" stroke-width="6" stroke-linecap="round" stroke-linejoin="round"/>
  </g>
</svg>
