<?xml version="1.0" encoding="UTF-8"?>
<svg xmlns="http://www.w3.org/2000/svg" viewBox="0 0 128 128">
  <!-- Table/grid icon for splash screen -->
  <g transform="translate(14, 14)" fill="white">
    <!-- Outer rounded rectangle -->
    <rect x="0" y="0" width="100" height="100" rx="10" fill="none" stroke="white" stroke-width="5"/>

    <!-- Horizontal dividers -->
    <line x1="0" y1="33" x2="100" y2="33" stroke="white" stroke-width="3"/>
    <line x1="0" y1="66" x2="100" y2="66" stroke="white" stroke-width="3"/>

    <!-- Row 1 -->
    <circle cx="20" cy="16" r="6" fill="white"/>
    <rect x="34" y="12" width="44" height="4" rx="2" fill="white"/>
    <rect x="34" y="19" width="28" height="3" rx="1.5" fill="white" opacity="0.6"/>

    <!-- Row 2 -->
    <circle cx="20" cy="49" r="6" fill="white"/>
    <rect x="34" y="45" width="38" height="4" rx="2" fill="white"/>
    <rect x="34" y="52" width="32" height="3" rx="1.5" fill="white" opacity="0.6"/>

    <!-- Row 3 -->
    <circle cx="20" cy="82" r="6" fill="white"/>
    <rect x="34" y="78" width="50" height="4" rx="2" fill="white"/>
    <rect x="34" y="85" width="24" height="3" rx="1.5" fill="white" opacity="0.6"/>

    <!-- Chevrons -->
    <path d="M86 12 L92 16 L86 20" fill="none" stroke="white" stroke-width="2" stroke-linecap="round" stroke-linejoin="round"/>
    <path d="M86 45 L92 49 L86 53" fill="none" stroke="white" stroke-width="2" stroke-linecap="round" stroke-linejoin="round"/>
    <path d="M86 78 L92 82 L86 86" fill="none" stroke="white" stroke-width="2" stroke-linecap="round" stroke-linejoin="round"/>
  </g>
</svg>
